<?xml version="1.0" standalone="no"?>
<svg version="1.0" xmlns="http://www.w3.org/2000/svg"
 width="512.000000pt" height="512.000000pt" viewBox="0 0 512.000000 512.000000"
 preserveAspectRatio="xMidYMid meet">

<g transform="translate(0.000000,512.000000) scale(0.100000,-0.100000)"
fill="#000000" stroke="none">
<path d="M1436 4870 c-289 -46 -554 -203 -727 -433 -74 -98 -160 -271 -189
-382 -111 -428 39 -887 379 -1155 44 -35 81 -65 81 -66 0 -2 -53 -30 -117 -64
-465 -240 -779 -688 -848 -1208 -21 -160 -21 -800 0 -889 51 -215 232 -387
445 -423 46 -8 673 -10 2140 -8 1924 3 2079 5 2123 20 199 71 337 219 382 411
20 86 21 735 1 887 -70 522 -384 970 -847 1210 -66 34 -119 62 -119 64 0 1 37
31 81 66 328 258 483 702 388 1110 -96 415 -400 726 -817 837 -86 23 -116 26
-267 26 -151 0 -181 -3 -266 -25 -133 -36 -229 -78 -339 -149 -110 -71 -255
-212 -315 -306 -22 -35 -42 -63 -45 -63 -3 0 -23 28 -45 63 -59 91 -205 235
-312 304 -177 117 -356 172 -573 178 -74 2 -162 0 -194 -5z m306 -304 c284
-55 520 -253 616 -519 166 -459 -97 -951 -573 -1073 -94 -24 -285 -24 -374 -1
-165 44 -266 102 -386 222 -120 120 -178 221 -222 386 -23 86 -22 279 1 374
23 96 105 258 165 327 122 141 260 229 426 271 115 30 237 34 347 13z m1997
-16 c157 -45 300 -136 408 -262 63 -74 143 -232 169 -333 24 -94 24 -286 1
-374 -44 -165 -102 -266 -222 -386 -120 -120 -221 -178 -386 -222 -89 -23
-280 -23 -374 1 -238 61 -444 228 -544 441 -228 481 53 1039 579 1151 91 19
273 11 369 -16z m-1155 -1380 c56 -95 190 -236 300 -316 l29 -21 -84 -41 c-46
-22 -126 -68 -177 -101 l-93 -61 -75 51 c-42 28 -118 72 -170 99 -53 26 -96
50 -97 52 -1 3 32 32 73 65 86 68 163 151 223 240 23 34 44 63 47 63 3 0 14
-14 24 -30z m-724 -545 c252 -56 469 -174 650 -355 184 -184 301 -401 357
-660 16 -74 18 -136 18 -490 l0 -405 -28 -48 c-31 -52 -96 -101 -159 -117 -23
-7 -427 -9 -1125 -8 l-1088 3 -41 22 c-50 27 -97 75 -121 122 -16 32 -18 73
-21 393 -3 389 4 474 53 643 75 258 250 508 471 672 154 114 366 204 558 238
106 19 371 13 476 -10z m1868 10 c559 -91 992 -531 1077 -1095 11 -69 15 -190
15 -445 0 -346 0 -351 -24 -400 -27 -58 -65 -99 -121 -129 -40 -21 -44 -21
-792 -24 l-753 -3 19 43 c37 86 41 140 41 525 0 413 -8 504 -59 682 -56 195
-163 404 -282 553 -32 40 -59 75 -59 78 0 13 150 96 245 135 208 86 468 116
693 80z"/>
</g>
</svg>
