<?xml version="1.0" standalone="no"?>
<svg version="1.0" xmlns="http://www.w3.org/2000/svg"
 width="512.000000pt" height="512.000000pt" viewBox="0 0 512.000000 512.000000"
 preserveAspectRatio="xMidYMid meet">

<g transform="translate(0.000000,512.000000) scale(0.100000,-0.100000)"
fill="#000000" stroke="none">
<path d="M1436 4870 c-370 -59 -681 -289 -842 -625 -120 -249 -143 -520 -68
-782 142 -499 630 -845 1139 -809 608 44 1069 558 1042 1161 -13 283 -126 536
-326 736 -208 208 -458 316 -751 324 -74 2 -162 0 -194 -5z"/>
<path d="M3365 4870 c-85 -14 -224 -55 -300 -89 -74 -34 -211 -122 -268 -172
l-39 -34 56 -95 c261 -440 259 -999 -4 -1436 -28 -47 -48 -89 -45 -94 3 -5 42
-36 87 -70 403 -304 944 -302 1351 5 182 138 326 350 391 575 173 605 -188
1228 -802 1386 -109 29 -321 40 -427 24z"/>
<path d="M598 2600 c-320 -259 -529 -630 -583 -1038 -22 -162 -21 -800 0 -891
39 -164 146 -297 296 -369 46 -23 111 -45 143 -51 40 -7 418 -11 1145 -11 906
0 1097 3 1154 15 210 44 387 222 427 430 8 43 10 184 7 475 -4 378 -6 424 -25
511 -58 257 -174 501 -332 694 -115 140 -319 318 -345 299 -223 -160 -409
-245 -640 -290 -134 -26 -387 -24 -522 5 -197 41 -367 114 -530 227 -51 35
-96 64 -100 64 -5 0 -47 -32 -95 -70z"/>
<path d="M4343 2616 c-148 -110 -376 -206 -573 -242 -125 -23 -383 -23 -494
-1 -44 9 -81 15 -83 13 -2 -2 20 -43 48 -91 98 -166 180 -388 220 -596 21
-104 23 -151 27 -539 4 -452 0 -514 -42 -638 -30 -88 -58 -143 -113 -220 l-45
-63 694 3 693 3 66 26 c99 38 157 76 224 143 67 69 117 160 140 259 21 87 21
735 0 890 -44 329 -192 643 -418 883 -81 86 -235 216 -260 221 -7 1 -44 -22
-84 -51z"/>
</g>
</svg>
